<svg id="Слой_1" data-name="Слой 1" xmlns="http://www.w3.org/2000/svg" viewBox="0 0 482.99 559.23"><path d="M223.9,428h69V74.69H74.09v71.86H223.9V218H86v72.43h138Z" transform="translate(-51.61 -74.69)" style="fill:#8c712c;fill-rule:evenodd"/><path d="M292.93,429.13H223.87V75.79h69.06V429.13ZM426.71,75.79h85.42L384.3,247,508.42,429.16H423L297.88,245.31Z" transform="translate(-51.61 -74.69)" style="fill:#8c712c;fill-rule:evenodd"/><line x1="154.99" y1="558.95" x2="154.99" y2="558.95" style="fill:none;stroke:#231f20;stroke-miterlimit:22.925600000000003;stroke-width:0.5669000000000001px"/><path d="M428.53,524.66H413.74c-4.17-5.1-8.57-11.29-12.93-16.08-1.18-1.3-2.34-4.89-11.62-4.86h-2.07v21H375.78V466.66h21.85a21.43,21.43,0,0,1,13.95,4.79,17.63,17.63,0,0,1,5,7.38,17.09,17.09,0,0,1,1.05,5.26,18.46,18.46,0,0,1-9,16.81,33.88,33.88,0,0,1,4,4.14c.79.95,1.66,2.07,2.62,3.33l13.24,16.29Zm-41.41-46.09V492.3h8.81c2.64,0,6.43-.74,8.42-2.68a6.13,6.13,0,0,0,.34-8.7c-1.8-1.82-4.91-2.35-8.67-2.35Z" transform="translate(-51.61 -74.69)" style="fill:#8c712c;fill-rule:evenodd"/><rect x="388.28" y="391.96" width="11.34" height="58" style="fill:#8c712c"/><polygon points="472.06 449.96 472.06 413.21 457.07 449.97 445.31 449.97 430.18 412.87 430.18 449.97 419.39 449.97 419.38 391.96 433.53 391.96 451.19 435.48 468.85 391.96 482.99 391.96 482.99 449.97 472.06 449.96" style="fill:#8c712c;fill-rule:evenodd"/><rect x="211.86" y="391.96" width="11.34" height="58" style="fill:#8c712c"/><polygon points="279.58 449.96 269.97 449.96 269.97 391.96 278.11 391.96 281.3 391.96 308.81 391.96 308.81 403.85 281.3 403.85 281.3 414.86 308.81 414.86 308.81 426.75 281.3 426.75 281.3 438.08 308.81 438.08 308.81 449.97 279.58 449.97 279.58 449.96" style="fill:#8c712c;fill-rule:evenodd"/><polygon points="245.16 391.96 259.18 391.96 238.19 420.07 258.57 449.97 244.55 449.97 224.01 419.79 245.16 391.96" style="fill:#8c712c;fill-rule:evenodd"/><rect x="106.02" y="391.96" width="11.34" height="58" style="fill:#8c712c"/><rect x="132.51" y="391.96" width="11.34" height="58" style="fill:#8c712c"/><polygon points="165.2 449.97 179.22 449.97 158.85 420.07 179.83 391.96 165.81 391.96 144.66 419.79 165.2 449.97" style="fill:#8c712c;fill-rule:evenodd"/><path d="M63,524.66H51.61v-58H87.54v11.89H63v11.64H85.59v11.89H63Z" transform="translate(-51.61 -74.69)" style="fill:#8c712c;fill-rule:evenodd"/><polygon points="71.3 391.99 71.3 391.99 71.3 392 92.6 449.97 81.37 449.97 65.79 407.18 50.26 449.97 39.02 449.97 60.26 392 60.25 391.97 71.29 391.97 71.3 391.99" style="fill:#8c712c;fill-rule:evenodd"/><rect x="51.4" y="429" width="27.65" height="11.34" style="fill:#8c712c"/><rect x="388.28" y="391.96" width="11.34" height="58" style="fill:#8c712c"/></svg>